<svg width="97" height="96" viewBox="0 0 97 96" fill="none" xmlns="http://www.w3.org/2000/svg">
<path d="M19.8024 62.3488C19.6741 62.3488 19.5453 62.3428 19.4148 62.3308C14.6101 61.8775 10.1647 59.5909 7.00187 55.9458C3.83902 52.3007 2.20184 47.5773 2.43038 42.7568C2.65891 37.9362 4.7356 33.3889 8.22911 30.0593C11.7226 26.7298 16.3644 24.874 21.1904 24.8773C21.9615 24.8772 22.7318 24.924 23.4972 25.0176C25.7168 20.8394 29.0566 17.3622 33.142 14.9762C37.2274 12.5901 41.8968 11.3895 46.6265 11.509C51.3562 11.6286 55.959 13.0635 59.9186 15.6529C63.8783 18.2423 67.0382 21.8838 69.0439 26.1688C69.3348 26.7894 69.4653 27.4731 69.4233 28.1572C69.3813 28.8413 69.1682 29.504 68.8036 30.0843C68.4389 30.6647 67.9344 31.1442 67.3363 31.4789C66.7381 31.8136 66.0656 31.9928 65.3802 32C61.1383 32.0466 57.0122 33.3893 53.5553 35.8479C50.0983 38.3066 47.4759 41.7636 46.0399 45.7552C45.6776 46.7635 44.9345 47.5896 43.97 48.0562C43.0055 48.5228 41.8966 48.5926 40.8811 48.2508C39.0678 47.6412 37.1422 47.4392 35.2418 47.6592C33.3414 47.8792 31.5129 48.5159 29.8868 49.5238C28.2607 50.5316 26.8771 51.8859 25.8345 53.4899C24.7919 55.094 24.1161 56.9083 23.8552 58.8036C23.7226 59.7847 23.2389 60.6845 22.4937 61.3363C21.7485 61.9881 20.7924 62.3479 19.8024 62.3488Z" fill="url(#paint0_linear_101_122)"/>
<path d="M65.6062 81.7541H36.7311C33.9486 81.7562 31.193 81.2096 28.6219 80.1458C26.0507 79.0819 23.7146 77.5216 21.7471 75.554C19.7795 73.5865 18.2192 71.2503 17.1553 68.6792C16.0914 66.1081 15.5449 63.3525 15.547 60.5699C15.5497 57.5296 16.2063 54.5253 17.4721 51.761C18.738 48.9967 20.5836 46.5369 22.8837 44.5486C25.1838 42.5603 27.8846 41.0899 30.8029 40.2371C33.7213 39.3844 36.7889 39.1693 39.7977 39.6063C42.2031 34.899 45.85 30.9392 50.3439 28.1553C54.8378 25.3715 60.0075 23.8697 65.2934 23.8124H65.3114H65.6062C73.29 23.8124 80.659 26.8647 86.0923 32.298C91.5255 37.7312 94.5779 45.1003 94.5779 52.784C94.5779 60.4678 91.5255 67.8369 86.0923 73.2701C80.659 78.7033 73.29 81.7557 65.6062 81.7557V81.7541Z" fill="url(#paint1_linear_101_122)"/>
<defs>
<linearGradient id="paint0_linear_101_122" x1="60.3131" y1="-26.2687" x2="19.655" y2="74.7946" gradientUnits="userSpaceOnUse">
<stop stop-color="#69BBFF"/>
<stop offset="1" stop-color="#1798FF"/>
</linearGradient>
<linearGradient id="paint1_linear_101_122" x1="15.5486" y1="52.7824" x2="94.5779" y2="52.7824" gradientUnits="userSpaceOnUse">
<stop stop-color="#69BBFF"/>
<stop offset="1" stop-color="#9DE0F4"/>
</linearGradient>
</defs>
</svg>
